<svg width="80" height="80" viewBox="0 0 80 80" fill="none" xmlns="http://www.w3.org/2000/svg">
<g clip-path="url(#clip0_1565_4877)">
<path d="M76.3637 0.480469H3.63727C1.89382 0.480469 0.480469 1.89382 0.480469 3.63727V76.3637C0.480469 78.1071 1.89382 79.5205 3.63727 79.5205H76.3637C78.1071 79.5205 79.5205 78.1071 79.5205 76.3637V3.63727C79.5205 1.89382 78.1071 0.480469 76.3637 0.480469Z" fill="#5C2682"/>
<path d="M15.7499 32.3452V35.2652H22.2091V37.954H15.7499V43.1948H12.7715V29.6572H23.0787V32.3452H15.7499Z" fill="white"/>
<path d="M36.268 42.0142C35.8886 42.3141 35.4767 42.5704 35.04 42.7782C34.5746 42.9969 34.0844 43.1581 33.58 43.2582C32.9941 43.3734 32.3979 43.4286 31.8008 43.423C30.8518 43.4316 29.9109 43.2474 29.0352 42.8814C28.2103 42.5378 27.4611 42.0352 26.8304 41.4022C26.2053 40.7672 25.7123 40.0146 25.38 39.1878C25.029 38.3217 24.8515 37.3951 24.8576 36.4606V36.4222C24.8506 35.49 25.0281 34.5655 25.38 33.7022C25.7167 32.8751 26.2091 32.1204 26.8304 31.479C27.4626 30.8315 28.2191 30.3183 29.0544 29.9702C29.9627 29.5958 30.9377 29.4102 31.92 29.4246C32.5005 29.4202 33.0799 29.4719 33.6504 29.579C34.1375 29.6723 34.6138 29.8149 35.072 30.0046C35.4881 30.1802 35.8838 30.4007 36.252 30.6622C36.61 30.9179 36.9463 31.2026 37.2576 31.5134L35.36 33.6982C34.8754 33.2527 34.332 32.8758 33.7448 32.5782C33.1689 32.3016 32.5365 32.1627 31.8976 32.1726C31.3548 32.1676 30.8172 32.2797 30.3216 32.5014C29.847 32.714 29.4222 33.0236 29.0744 33.4102C28.7223 33.8036 28.4469 34.2595 28.2624 34.7542C28.0664 35.2767 27.968 35.8306 27.972 36.3886V36.427C27.9686 36.9881 28.067 37.5451 28.2624 38.071C28.444 38.5673 28.7152 39.0261 29.0624 39.4246C29.4166 39.8253 29.853 40.145 30.3418 40.3618C30.8306 40.5787 31.3605 40.6877 31.8952 40.6814C32.6691 40.6814 33.3235 40.5395 33.8584 40.2558C34.4384 39.9402 34.9746 39.5503 35.4536 39.0958L37.3488 41.0102C37.0145 41.3717 36.6532 41.7074 36.268 42.0142Z" fill="white"/>
<path d="M50.3271 43.1948V34.3564L46.5167 40.1388H46.4367L42.6655 34.4148V43.1948H39.7295V29.6572H42.9391L46.4975 35.382L50.0559 29.6572H53.2663V43.1948H50.3271Z" fill="white"/>
<path d="M67.646 41.106C67.4066 41.5717 67.0549 41.9703 66.6228 42.266C66.1365 42.594 65.5942 42.8301 65.0228 42.9628C64.3414 43.1241 63.643 43.202 62.9428 43.1948H56.5156V29.6572H62.79C64.1794 29.6572 65.2698 29.9732 66.0612 30.6052C66.8527 31.2372 67.2487 32.0882 67.2492 33.158V33.2004C67.2547 33.5475 67.2059 33.8933 67.1044 34.2252C67.0143 34.5085 66.885 34.7777 66.7204 35.0252C66.5638 35.2597 66.3753 35.4714 66.1604 35.654C65.9511 35.8334 65.7225 35.989 65.4788 36.118C66.2612 36.4151 66.8772 36.818 67.3268 37.3268C67.7764 37.8356 68.001 38.5402 68.0004 39.4404V39.4788C68.0141 40.0418 67.8926 40.5998 67.646 41.106ZM64.3092 33.6604C64.3092 33.2092 64.1418 32.8644 63.8068 32.626C63.4719 32.3876 62.9884 32.2684 62.3564 32.2684H59.4164V35.13H62.1604C62.818 35.13 63.3402 35.0172 63.7268 34.7916C64.1135 34.566 64.3068 34.2018 64.3068 33.6988L64.3092 33.6604ZM65.0636 39.0756C65.0706 38.8674 65.0267 38.6607 64.9356 38.4733C64.8446 38.2859 64.7092 38.1236 64.5412 38.0004C64.193 37.7364 63.633 37.6031 62.8612 37.6004H59.4212V40.5788H62.9604C63.618 40.5788 64.1338 40.4596 64.5076 40.2212C64.8815 39.9828 65.0682 39.6122 65.0676 39.1092L65.0636 39.0756Z" fill="white"/>
<path d="M67.778 51.8691V58.4979H12.4756V55.0115C12.4755 54.5988 12.5567 54.1902 12.7146 53.8089C12.8725 53.4276 13.1039 53.0811 13.3957 52.7893C13.6876 52.4975 14.034 52.266 14.4153 52.1081C14.7966 51.9502 15.2053 51.869 15.618 51.8691H67.778Z" fill="#FAB613"/>
<path d="M12.4756 60.6436H67.778V67.2724H15.618C15.2052 67.2725 14.7965 67.1912 14.4151 67.0333C14.0338 66.8754 13.6873 66.6438 13.3955 66.3519C13.1036 66.06 12.8722 65.7135 12.7143 65.3321C12.5565 64.9507 12.4754 64.5419 12.4756 64.1292V60.6436Z" fill="#FAB613"/>
</g>
<defs>
<clipPath id="clip0_1565_4877">
<rect width="80" height="80" fill="white"/>
</clipPath>
</defs>
</svg>
