<svg width="404" height="404" viewBox="0 0 404 404" fill="none" xmlns="http://www.w3.org/2000/svg">
<g opacity="0.5">
<rect width="404" height="404" fill="white"/>
<path d="M366.177 201.475C366.177 227.269 345.266 248.18 319.472 248.18C293.677 248.18 272.767 227.269 272.767 201.475C272.767 175.68 293.677 154.77 319.472 154.77C345.266 154.77 366.177 175.68 366.177 201.475Z" fill="white" stroke="#FF2E2E"/>
<path d="M272.781 366.177V272.782H366.176V366.177H272.781Z" fill="white" stroke="#FF2E2E"/>
<path d="M319.118 83.8306L319.471 84.1841L319.825 83.8306L366.176 37.4939V130.182H272.781V37.4942L319.118 83.8306Z" fill="white" stroke="#FF2E2E"/>
<path d="M230.305 319.471V319.471C230.288 311.831 227.245 304.51 221.842 299.109C216.439 293.709 209.116 290.67 201.476 290.658H201.476C195.773 290.658 190.199 292.349 185.457 295.517C180.716 298.686 177.021 303.189 174.84 308.458C172.658 313.727 172.088 319.524 173.202 325.117C174.315 330.709 177.062 335.846 181.096 339.877C185.129 343.909 190.267 346.653 195.861 347.764C201.454 348.874 207.251 348.301 212.519 346.117C217.786 343.933 222.288 340.235 225.453 335.492C228.619 330.749 230.308 325.174 230.305 319.471ZM248.181 319.472V319.472C248.183 325.606 246.976 331.68 244.629 337.347C242.283 343.015 238.843 348.164 234.505 352.501C230.168 356.839 225.019 360.279 219.351 362.625C213.684 364.972 207.61 366.179 201.476 366.177H201.476C192.238 366.177 183.208 363.437 175.528 358.305C167.847 353.173 161.861 345.879 158.326 337.345C154.791 328.811 153.866 319.42 155.668 310.36C157.47 301.3 161.918 292.978 168.45 286.446C174.982 279.914 183.304 275.466 192.364 273.664C201.424 271.862 210.815 272.787 219.349 276.322C227.883 279.857 235.177 285.843 240.309 293.524C245.441 301.204 248.181 310.234 248.181 319.472Z" fill="white" stroke="#FF2E2E"/>
<path d="M154.785 248.179V155.491L247.473 248.179H154.785Z" fill="white" stroke="#FF2E2E"/>
<path d="M36.7871 248.178C61.508 248.042 85.187 238.164 102.679 220.676C102.679 220.676 102.679 220.676 102.679 220.676M36.7871 248.178L102.679 220.676M36.7871 248.178V154.784H130.181C130.045 179.505 120.167 203.184 102.679 220.676M36.7871 248.178L102.679 220.676" fill="white" stroke="#FF2E2E"/>
<path d="M78.0584 83.4771L36.7871 124.748V42.2205L78.0584 83.4771Z" fill="white" stroke="#FF2E2E"/>
<path d="M130.184 42.2205V124.748L88.9122 83.4771L130.184 42.2205Z" fill="white" stroke="#FF2E2E"/>
<path d="M248.164 57.5188C248.164 68.9686 238.882 78.2505 227.432 78.2505C215.982 78.2505 206.7 68.9686 206.7 57.5188C206.7 46.069 215.982 36.7871 227.432 36.7871C238.882 36.7871 248.164 46.069 248.164 57.5188Z" fill="white" stroke="#FF2E2E"/>
<path d="M196.249 57.5188C196.249 68.9686 186.967 78.2505 175.517 78.2505C164.067 78.2505 154.785 68.9686 154.785 57.5188C154.785 46.069 164.067 36.7871 175.517 36.7871C186.967 36.7871 196.249 46.069 196.249 57.5188Z" fill="white" stroke="#FF2E2E"/>
<path d="M248.164 109.45C248.164 120.9 238.882 130.182 227.432 130.182C215.982 130.182 206.7 120.9 206.7 109.45C206.7 98.0006 215.982 88.7188 227.432 88.7188C238.882 88.7188 248.164 98.0006 248.164 109.45Z" fill="white" stroke="#FF2E2E"/>
<path d="M196.249 109.45C196.249 120.9 186.967 130.182 175.517 130.182C164.067 130.182 154.785 120.9 154.785 109.45C154.785 98.0006 164.067 88.7188 175.517 88.7188C186.967 88.7188 196.249 98.0006 196.249 109.45Z" fill="white" stroke="#FF2E2E"/>
<path d="M102.106 289.644C107.205 285.317 110.637 279.355 111.82 272.782H129.901C128.634 284.097 123.277 294.568 114.826 302.216C106.238 309.988 95.0683 314.292 83.4856 314.292C71.9029 314.292 60.7334 309.988 52.1455 302.216C43.6944 294.568 38.3367 284.097 37.0704 272.782H55.1054C56.2893 279.355 59.7211 285.317 64.82 289.644C70.027 294.063 76.634 296.488 83.4629 296.488C90.2919 296.488 96.8989 294.063 102.106 289.644Z" fill="white" stroke="#FF2E2E"/>
<path d="M114.813 336.76C123.265 344.403 128.627 354.866 129.9 366.177H111.866C110.682 359.604 107.25 353.642 102.151 349.315C96.9442 344.896 90.3372 342.471 83.5083 342.471C76.6793 342.471 70.0723 344.896 64.8653 349.315C59.7664 353.642 56.3346 359.604 55.1507 366.177H37.0706C38.3407 354.867 43.6994 344.404 52.1488 336.761C60.7351 328.995 71.9005 324.696 83.4779 324.698L83.4782 324.698C95.0573 324.696 106.225 328.994 114.813 336.76Z" fill="white" stroke="#FF2E2E"/>
<path d="M55.1054 366.177H37.0704C38.3367 354.862 43.6944 344.392 52.1455 336.743C60.7334 328.971 71.9029 324.667 83.4856 324.667C95.0683 324.667 106.238 328.971 114.826 336.743C123.277 344.392 128.634 354.862 129.901 366.177H111.82C110.637 359.604 107.205 353.642 102.106 349.315C96.8989 344.897 90.2919 342.471 83.4629 342.471C76.634 342.471 70.027 344.897 64.82 349.315C59.7211 353.642 56.2893 359.604 55.1054 366.177Z" fill="white" stroke="#FF2E2E"/>
<path d="M111.866 272.782H129.901C128.634 284.097 123.277 294.568 114.826 302.216C106.238 309.988 95.0683 314.292 83.4856 314.292C71.9029 314.292 60.7334 309.988 52.1455 302.216C43.6944 294.568 38.3367 284.097 37.0704 272.782H55.1507C56.3346 279.355 59.7664 285.317 64.8653 289.644C70.0723 294.063 76.6793 296.488 83.5083 296.488C90.3372 296.488 96.9442 294.063 102.151 289.644C107.25 285.317 110.682 279.355 111.866 272.782Z" fill="white" stroke="#FF2E2E"/>
<path d="M354.081 201.475C354.081 227.269 333.17 248.18 307.376 248.18C281.581 248.18 260.671 227.269 260.671 201.475C260.671 175.68 281.581 154.77 307.376 154.77C333.17 154.77 354.081 175.68 354.081 201.475Z" fill="white" stroke="#FF2E2E"/>
<path d="M260.686 366.177V272.782H354.08V366.177H260.686Z" fill="white" stroke="#FF2E2E"/>
<path d="M307.022 83.8306L307.375 84.1841L307.729 83.8306L354.08 37.4939V130.182H260.686V37.4942L307.022 83.8306Z" fill="white" stroke="#FF2E2E"/>
<path d="M218.209 319.471V319.471C218.193 311.831 215.15 304.51 209.746 299.109C204.343 293.709 197.02 290.67 189.381 290.658H189.38C183.677 290.658 178.103 292.349 173.362 295.517C168.62 298.686 164.925 303.189 162.744 308.458C160.562 313.727 159.992 319.524 161.106 325.117C162.219 330.709 164.967 335.846 169 339.877C173.033 343.909 178.172 346.653 183.765 347.764C189.358 348.874 195.155 348.301 200.423 346.117C205.69 343.933 210.192 340.235 213.358 335.492C216.524 330.749 218.212 325.174 218.209 319.471ZM236.085 319.472V319.472C236.087 325.606 234.88 331.68 232.534 337.347C230.187 343.015 226.747 348.164 222.41 352.501C218.072 356.839 212.923 360.279 207.255 362.625C201.588 364.972 195.514 366.179 189.38 366.177H189.38C180.142 366.177 171.113 363.437 163.432 358.305C155.751 353.173 149.765 345.879 146.23 337.345C142.695 328.811 141.77 319.42 143.572 310.36C145.374 301.3 149.823 292.978 156.354 286.446C162.886 279.914 171.208 275.466 180.268 273.664C189.328 271.862 198.719 272.787 207.253 276.322C215.787 279.857 223.082 285.843 228.214 293.524C233.346 301.204 236.085 310.234 236.085 319.472Z" fill="white" stroke="#FF2E2E"/>
<path d="M142.689 248.179V155.491L235.377 248.179H142.689Z" fill="white" stroke="#FF2E2E"/>
<path d="M24.6914 248.178C49.4123 248.042 73.0913 238.164 90.5832 220.676C90.5832 220.676 90.5833 220.676 90.5833 220.676M24.6914 248.178L90.5833 220.676M24.6914 248.178V154.784H118.085C117.949 179.505 108.072 203.184 90.5833 220.676M24.6914 248.178L90.5833 220.676" fill="white" stroke="#FF2E2E"/>
<path d="M65.9627 83.4771L24.6914 124.748V42.2205L65.9627 83.4771Z" fill="white" stroke="#FF2E2E"/>
<path d="M118.088 42.2205V124.748L76.8165 83.4771L118.088 42.2205Z" fill="white" stroke="#FF2E2E"/>
<path d="M236.068 57.5188C236.068 68.9686 226.786 78.2505 215.336 78.2505C203.886 78.2505 194.604 68.9686 194.604 57.5188C194.604 46.069 203.886 36.7871 215.336 36.7871C226.786 36.7871 236.068 46.069 236.068 57.5188Z" fill="white" stroke="#FF2E2E"/>
<path d="M184.153 57.5188C184.153 68.9686 174.871 78.2505 163.421 78.2505C151.971 78.2505 142.689 68.9686 142.689 57.5188C142.689 46.069 151.971 36.7871 163.421 36.7871C174.871 36.7871 184.153 46.069 184.153 57.5188Z" fill="white" stroke="#FF2E2E"/>
<path d="M236.068 109.45C236.068 120.9 226.786 130.182 215.336 130.182C203.886 130.182 194.604 120.9 194.604 109.45C194.604 98.0006 203.886 88.7188 215.336 88.7188C226.786 88.7188 236.068 98.0006 236.068 109.45Z" fill="white" stroke="#FF2E2E"/>
<path d="M184.153 109.45C184.153 120.9 174.871 130.182 163.421 130.182C151.971 130.182 142.689 120.9 142.689 109.45C142.689 98.0006 151.971 88.7188 163.421 88.7188C174.871 88.7188 184.153 98.0006 184.153 109.45Z" fill="white" stroke="#FF2E2E"/>
<path d="M90.0102 289.644C95.1091 285.317 98.5409 279.355 99.7248 272.782H117.805C116.539 284.097 111.181 294.568 102.73 302.216C94.1421 309.988 82.9726 314.292 71.3899 314.292C59.8072 314.292 48.6377 309.988 40.0498 302.216C31.5987 294.568 26.241 284.097 24.9747 272.782H43.0097C44.1936 279.355 47.6254 285.317 52.7243 289.644C57.9313 294.063 64.5383 296.488 71.3672 296.488C78.1962 296.488 84.8032 294.063 90.0102 289.644Z" fill="white" stroke="#FF2E2E"/>
<path d="M102.718 336.76C111.169 344.403 116.531 354.866 117.805 366.177H99.7701C98.5862 359.604 95.1544 353.642 90.0555 349.315C84.8485 344.896 78.2415 342.471 71.4125 342.471C64.5836 342.471 57.9766 344.896 52.7696 349.315C47.6707 353.642 44.2389 359.604 43.055 366.177H24.9749C26.245 354.867 31.6037 344.404 40.0531 336.761C48.6394 328.995 59.8048 324.696 71.3822 324.698L71.3825 324.698C82.9616 324.696 94.1289 328.994 102.718 336.76Z" fill="white" stroke="#FF2E2E"/>
<path d="M43.0097 366.177H24.9747C26.241 354.862 31.5987 344.392 40.0498 336.743C48.6377 328.971 59.8072 324.667 71.3899 324.667C82.9726 324.667 94.1421 328.971 102.73 336.743C111.181 344.392 116.539 354.862 117.805 366.177H99.7248C98.5409 359.604 95.1091 353.642 90.0102 349.315C84.8032 344.897 78.1962 342.471 71.3672 342.471C64.5383 342.471 57.9313 344.897 52.7243 349.315C47.6254 353.642 44.1936 359.604 43.0097 366.177Z" fill="white" stroke="#FF2E2E"/>
<path d="M99.7701 272.782H117.805C116.539 284.097 111.181 294.568 102.73 302.216C94.1421 309.988 82.9726 314.292 71.3899 314.292C59.8072 314.292 48.6377 309.988 40.0498 302.216C31.5987 294.568 26.241 284.097 24.9747 272.782H43.055C44.2389 279.355 47.6707 285.317 52.7696 289.644C57.9766 294.063 64.5836 296.488 71.4125 296.488C78.2415 296.488 84.8485 294.063 90.0555 289.644C95.1544 285.317 98.5862 279.355 99.7701 272.782Z" fill="white" stroke="#FF2E2E"/>
</g>
</svg>
