<svg width="80" height="80" viewBox="0 0 80 80" fill="none" xmlns="http://www.w3.org/2000/svg">
<path d="M44.6396 44.1362C44.6732 44.0746 44.7004 44.0098 44.73 43.9466L55.4732 20.5978C55.5612 20.4074 55.65 20.2178 55.7364 20.0266C55.7668 19.961 55.7972 19.9034 55.8852 19.9042C56.0828 19.9042 56.2812 19.9042 56.5068 19.9042C56.4572 20.0242 56.4268 20.113 56.3852 20.1986C52.5548 28.5496 48.7246 36.9002 44.8948 45.2506C44.742 45.5834 44.5844 45.9154 44.4372 46.2506C44.3076 46.5466 44.3268 46.8346 44.5412 47.0858C44.6344 47.2031 44.7594 47.291 44.9013 47.3393C45.0431 47.3875 45.1958 47.3939 45.3412 47.3578C45.6612 47.293 45.8212 47.0714 45.946 46.7978C49.7684 38.4794 53.5894 30.1626 57.4092 21.8474C57.774 21.0538 58.1292 20.2578 58.5052 19.4674C58.7116 19.029 58.5444 18.4122 57.9684 18.293V18.2402H55.0836C55.0864 18.2484 55.0874 18.257 55.0866 18.2656C55.0857 18.2741 55.0831 18.2824 55.0788 18.2898C54.7652 18.3586 54.5988 18.5802 54.47 18.8498C54.0433 19.7789 53.6166 20.7077 53.19 21.6362C50.1564 28.257 47.1196 34.8762 44.0796 41.4938C44.0364 41.589 43.9908 41.6826 43.9388 41.793C43.8188 41.713 43.8172 41.5802 43.7524 41.4866C43.53 41.1666 43.5844 40.8714 43.7452 40.5218C46.8748 33.7149 49.9948 26.904 53.1052 20.089C53.2028 19.8746 53.3036 19.661 53.4004 19.449C53.6292 18.9402 53.3852 18.4314 52.8452 18.285C52.8425 18.2698 52.8365 18.2553 52.8276 18.2426H49.9996C50.0039 18.2591 50.0016 18.2766 49.9932 18.2914C49.6812 18.3546 49.4964 18.561 49.37 18.837C48.8825 19.901 48.3942 20.9645 47.9052 22.0274L41.4772 36.0274C41.4476 36.0906 41.4172 36.153 41.3772 36.2346C41.2476 36.097 41.2172 35.921 41.1292 35.781C40.9644 35.5202 40.9908 35.2874 41.1212 35.005C43.4753 29.9069 45.822 24.8056 48.1612 19.701C48.2612 19.4834 48.3364 19.2666 48.2812 19.0194C48.2503 18.8598 48.1701 18.7139 48.0521 18.6021C47.934 18.4903 47.7839 18.4183 47.6228 18.3962C47.5272 18.3849 47.431 18.3803 47.3348 18.3826C46.6004 18.3826 45.866 18.3962 45.1324 18.377C44.6572 18.3642 44.3636 18.5674 44.1724 18.9898C42.8838 21.808 41.5902 24.6248 40.2916 27.4402C39.8324 28.4402 39.3732 29.4402 38.914 30.4402C38.882 30.5114 38.8436 30.5794 38.7908 30.6842C38.6628 30.4042 38.5508 30.153 38.4316 29.901C38.3876 29.8042 38.4556 29.733 38.49 29.661C38.8692 28.8258 39.2502 27.9917 39.6332 27.1586C40.7894 24.6338 41.9454 22.1088 43.1012 19.5834C43.2612 19.2362 43.214 18.8914 42.9756 18.6338C42.91 18.5571 42.8287 18.4952 42.7372 18.4524C42.6457 18.4097 42.5462 18.387 42.4452 18.3858C41.5796 18.3858 40.714 18.3786 39.8484 18.3858C39.4764 18.3858 39.2356 18.6058 39.0852 18.933L38.2212 20.8138C37.5988 22.1706 36.9756 23.5261 36.3516 24.8802C36.3204 24.949 36.3068 25.0322 36.2196 25.0826L35.5724 23.6802C34.8692 22.149 34.1604 20.6194 33.4676 19.0834C33.3076 18.7226 33.1188 18.4058 32.7404 18.2426H32.3732C32.3068 18.329 32.1956 18.3434 32.1124 18.4026C31.8412 18.5978 31.7052 18.853 31.746 19.1906C31.7702 19.3105 31.8125 19.426 31.8716 19.533C32.9916 21.9789 34.1116 24.424 35.2316 26.8682C35.269 26.9355 35.2894 27.011 35.2909 27.0879C35.2925 27.1649 35.2751 27.2411 35.2404 27.3098C33.8798 30.2586 32.5236 33.2088 31.1716 36.1602C31.1511 36.2265 31.1145 36.2867 31.0652 36.3354C30.9989 36.2483 30.947 36.151 30.9116 36.0474C28.3052 30.3738 25.699 24.6997 23.0932 19.025C23.0527 18.9285 23.0046 18.8354 22.9492 18.7466C22.7092 18.3882 22.274 18.2666 21.9164 18.4586C21.5004 18.6794 21.3452 19.0986 21.5252 19.5226C21.5564 19.5954 21.5908 19.6658 21.6228 19.7378L30.2212 38.5058C30.2551 38.5878 30.2933 38.6679 30.3356 38.7458C30.6612 39.3058 31.3916 39.3202 31.7396 38.7786C31.8015 38.6734 31.8563 38.5641 31.9036 38.4514L36.0916 29.3602C36.1238 29.2659 36.1714 29.1775 36.2324 29.0986C36.3548 29.2738 36.4092 29.4786 36.5132 29.6586C36.598 29.8042 36.578 29.9298 36.5092 30.0762C36.146 30.8514 35.7892 31.6306 35.4356 32.4082C34.1556 35.1938 32.8756 37.9794 31.5956 40.765C31.5401 40.8744 31.5109 40.9951 31.5102 41.1178C31.5095 41.2404 31.5373 41.3615 31.5916 41.4714C31.6596 41.6138 31.7244 41.757 31.7892 41.9002C32.1308 42.6562 32.474 43.4114 32.8116 44.169C32.9252 44.4234 33.0964 44.6066 33.3716 44.677C33.814 44.7898 34.1804 44.6154 34.3804 44.1866C34.7964 43.2914 35.2068 42.3946 35.6196 41.4978C36.6329 39.292 37.6478 37.0866 38.6644 34.8818C38.6972 34.8106 38.7084 34.7218 38.8036 34.6754C38.8892 34.8618 38.958 35.0426 39.0516 35.209C39.1452 35.3754 39.1268 35.5074 39.0516 35.673C37.4436 39.1701 35.8377 42.6693 34.234 46.1706C34.194 46.2578 34.15 46.3442 34.1188 46.4346C34.0795 46.5397 34.0632 46.6519 34.071 46.7638C34.0787 46.8756 34.1104 46.9845 34.1639 47.0831C34.2173 47.1817 34.2913 47.2676 34.3808 47.3352C34.4704 47.4027 34.5733 47.4503 34.6828 47.4746C35.0708 47.5746 35.4332 47.3946 35.6188 46.9946C36.0454 46.0746 36.4684 45.1541 36.8876 44.233C37.8945 42.0432 38.902 39.8536 39.91 37.6642C39.9468 37.5842 39.958 37.481 40.0652 37.4338C40.1284 37.569 40.1876 37.6954 40.246 37.8218C40.3668 38.0834 40.4796 38.3498 40.6108 38.6058C40.675 38.7414 40.776 38.8562 40.9023 38.9371C41.0286 39.018 41.1752 39.0618 41.3252 39.0634C41.654 39.0754 41.8852 38.9034 42.0532 38.6306C42.1002 38.5469 42.1427 38.4606 42.1804 38.3722L50.0476 21.2802C50.2337 20.8754 50.4204 20.4709 50.6076 20.0666C50.6444 19.9866 50.6692 19.8994 50.7844 19.9066C50.9748 19.9154 51.1668 19.8898 51.3612 19.9234C51.3692 20.0618 51.2892 20.1634 51.2404 20.2698C48.7518 25.7002 46.2617 31.1296 43.77 36.5578C43.1433 37.9232 42.5164 39.2882 41.8892 40.653C41.8373 40.7496 41.8077 40.8565 41.8024 40.966C41.7971 41.0755 41.8164 41.1847 41.8588 41.2858C42.2854 42.2346 42.7137 43.1816 43.1436 44.1266C43.29 44.4466 43.5572 44.5866 43.9028 44.589C44.0564 44.5939 44.2081 44.5536 44.3391 44.4731C44.4701 44.3927 44.5745 44.2755 44.6396 44.1362ZM37.2156 26.9058C37.5489 26.1762 37.8844 25.4469 38.222 24.7178C38.9092 23.2274 39.5996 21.7386 40.278 20.2442C40.358 20.0634 40.4572 19.9914 40.65 20.0138C40.8051 20.0221 40.9605 20.0221 41.1156 20.0138L37.5044 27.8858C37.3732 27.6018 37.27 27.3738 37.1636 27.1482C37.1196 27.0538 37.1844 26.9818 37.2188 26.9058H37.2156ZM37.7972 32.8642C37.3172 33.9122 36.8372 34.9592 36.3572 36.005C35.5033 37.8685 34.6489 39.7336 33.794 41.6002C33.7476 41.7018 33.6996 41.8018 33.638 41.9338C33.6206 41.9155 33.6046 41.896 33.59 41.8754C33.4788 41.629 33.302 41.3898 33.2764 41.1346C33.2524 40.8946 33.45 40.6698 33.5548 40.441C34.8209 37.6682 36.0892 34.8976 37.3596 32.129C37.3923 32.0272 37.4469 31.9338 37.5196 31.8554C37.6396 32.1178 37.7596 32.3682 37.8684 32.6202C37.9068 32.713 37.8396 32.7874 37.8004 32.8642H37.7972ZM40.0628 33.4594C39.9348 33.1826 39.8348 32.9602 39.7284 32.7394C39.6724 32.6234 39.7388 32.5354 39.7812 32.4434C40.1924 31.5458 40.6052 30.6493 41.0196 29.7538C42.4724 26.5965 43.9249 23.4389 45.3772 20.281C45.4028 20.2258 45.4316 20.1714 45.4572 20.1146C45.4686 20.0823 45.4906 20.0548 45.5197 20.0366C45.5487 20.0184 45.5831 20.0107 45.6172 20.0146C45.8084 20.0146 45.9988 20.0146 46.2292 20.0146L40.0628 33.4594Z" fill="#990D81"/>
<path d="M13.2468 54.4192L11.0564 60.3904L10.366 62.2224C10.3572 62.2472 8.98039 62.2976 8.98039 62.2976C8.97524 62.2637 8.96721 62.2302 8.95639 62.1976C8.31853 60.62 7.67959 59.0427 7.03959 57.4656C7.02119 57.42 7.01319 57.3656 6.95319 57.352C6.94349 57.367 6.93468 57.3824 6.92679 57.3984L4.94199 62.2976H3.58199C3.60039 62.1952 3.54039 62.112 3.50839 62.024C3.14626 61.048 2.78386 60.0744 2.42119 59.1032C1.92679 57.7699 1.43213 56.4381 0.937194 55.108L0.930794 55.0904L0.719594 54.528L0.683594 54.4304C1.26279 54.4304 1.84359 54.4304 2.42279 54.416C2.57559 54.416 2.61079 54.496 2.65319 54.6096C3.04999 55.6533 3.44866 56.6968 3.84919 57.74C3.99959 58.1288 4.14919 58.5176 4.31959 58.96C4.36839 58.8496 4.39959 58.784 4.42599 58.72C4.97693 57.3669 5.52813 56.0155 6.07959 54.6656C6.19639 54.3808 6.13479 54.4256 6.45479 54.42C6.85479 54.42 7.25479 54.42 7.66039 54.42C7.89159 54.42 7.89239 54.42 7.98039 54.6376C8.50679 55.9864 9.03293 57.3357 9.55879 58.6856C9.58919 58.7656 9.62519 58.8456 9.67719 58.9672C9.72279 58.86 9.75719 58.7944 9.77959 58.7272L11.394 54.664C11.4908 54.4192 11.4916 54.4192 11.7428 54.4192H13.2468Z" fill="#990D81"/>
<path d="M31.5014 59.4179C31.5014 57.8025 31.5014 56.1867 31.5014 54.5707C31.5014 54.3387 31.5014 54.3371 31.2742 54.3363C30.7942 54.3363 30.3142 54.3483 29.8342 54.3299C29.6062 54.3211 29.479 54.3899 29.3622 54.5939C28.6286 55.8739 27.8798 57.1451 27.1342 58.4179C27.0886 58.4979 27.0598 58.5891 26.9614 58.6443C26.9094 58.5555 26.8638 58.4843 26.8222 58.4043C26.1022 57.1147 25.387 55.8267 24.6774 54.5331C24.6503 54.466 24.6018 54.4096 24.5396 54.3726C24.4773 54.3356 24.4046 54.3201 24.3326 54.3283C23.8086 54.3411 23.2846 54.3283 22.7606 54.3339C22.4246 54.3339 22.4558 54.2939 22.4558 54.6443C22.4558 57.0289 22.4558 59.4134 22.4558 61.7979C22.4558 61.9635 22.4598 62.1299 22.4622 62.2955H24.1422V57.6195C24.227 57.6371 24.239 57.6923 24.2622 57.7347C25.0814 59.1955 25.9001 60.6566 26.7182 62.1179C26.7374 62.1565 26.7539 62.1964 26.7678 62.2371C26.8438 62.2827 26.875 62.2299 26.9078 62.1747L27.4286 61.2947C28.122 60.1214 28.8166 58.9505 29.5126 57.7819C29.5496 57.6894 29.6123 57.6094 29.6934 57.5515V57.7643C29.6934 59.1787 29.6934 60.5921 29.6934 62.0043C29.6934 62.1003 29.6982 62.1963 29.7006 62.2923H31.4846C31.5079 62.199 31.5141 62.1023 31.503 62.0067C31.5025 61.1459 31.502 60.283 31.5014 59.4179Z" fill="#990D81"/>
<path d="M20.9937 60.7204C19.3777 60.7204 17.7614 60.7204 16.1449 60.7204C15.8985 60.7204 15.8969 60.7204 15.8961 60.486C15.8961 60.0668 15.8961 59.6468 15.8961 59.2276C15.8961 59.0004 15.8961 58.9996 16.1241 58.9972H16.2545C17.2769 58.9972 18.2993 58.9972 19.3217 58.9972C19.5233 58.9972 19.5265 58.9972 19.5273 58.7996C19.5273 58.4244 19.5273 58.0484 19.5273 57.6724C19.5273 57.4268 19.5273 57.4484 19.2929 57.4468C18.6817 57.4428 18.0697 57.4468 17.4585 57.4468C17.0041 57.4468 16.5497 57.4468 16.0985 57.4468C15.9033 57.4468 15.9001 57.442 15.8985 57.2412C15.8985 56.8916 15.8985 56.542 15.8985 56.1924C15.8985 56.0116 15.9033 56.0076 16.0905 56.0076C16.6841 56.0076 17.2785 56.0076 17.8729 56.0076C18.9123 56.0076 19.9523 56.0076 20.9929 56.0076C21.1921 56.0076 21.1945 56.0076 21.1961 55.8052C21.1961 55.438 21.1961 55.0708 21.1961 54.7044C21.1961 54.4092 21.2313 54.4244 20.9121 54.4244C18.7451 54.4244 16.5785 54.4244 14.4121 54.4244C14.0209 54.4244 14.0737 54.3812 14.0737 54.7524C14.0737 57.2681 14.0737 59.7844 14.0737 62.3012H21.3121C21.3121 61.882 21.3217 61.4628 21.3217 61.0436C21.3169 60.674 21.3553 60.7244 20.9937 60.7204Z" fill="#990D81"/>
<path d="M75.6891 57.4276C76.8987 56.4116 78.1078 55.3948 79.3163 54.3772V54.3252C78.5963 54.3252 77.8835 54.338 77.1675 54.33C76.977 54.323 76.7909 54.3884 76.6467 54.5132C75.5497 55.4076 74.4486 56.2967 73.3435 57.1804C73.2811 57.23 73.2339 57.3212 73.1179 57.294V57.082C73.1179 56.234 73.1179 55.3863 73.1179 54.5388C73.1179 54.3396 73.1139 54.3364 72.9139 54.3356C72.4419 54.3356 71.9702 54.3356 71.4987 54.3356C71.2971 54.3356 71.2971 54.3356 71.2923 54.5364C71.2923 54.5884 71.2923 54.6412 71.2923 54.6964V61.434C71.2923 61.6436 71.2979 61.854 71.2923 62.0628C71.2875 62.1964 71.3307 62.2468 71.4699 62.2452C71.9595 62.238 72.4483 62.2388 72.9379 62.2452C73.0683 62.2452 73.1387 62.2132 73.1219 62.07C73.1186 62.0167 73.1186 61.9633 73.1219 61.91C73.1219 61.1841 73.1219 60.4588 73.1219 59.734C73.1219 59.654 73.1011 59.5588 73.1883 59.494C73.4827 59.2759 73.7761 59.0559 74.0683 58.834C74.0792 58.8233 74.0924 58.8152 74.1069 58.8106C74.1214 58.8059 74.1368 58.8047 74.1518 58.8072C74.1669 58.8096 74.1812 58.8155 74.1935 58.8245C74.2058 58.8335 74.2158 58.8452 74.2227 58.8588C74.2547 58.9004 74.2883 58.9388 74.3219 58.9812C75.1705 60.0143 76.0185 61.0476 76.8659 62.0812C76.9027 62.1335 76.9522 62.1757 77.0097 62.2036C77.0672 62.2316 77.1309 62.2446 77.1947 62.2412C77.8067 62.2324 78.4187 62.2412 79.0299 62.2356C79.0843 62.2356 79.1523 62.2692 79.1899 62.1988C79.1558 62.1182 79.1051 62.0457 79.0411 61.986C77.9115 60.5855 76.7811 59.1849 75.6499 57.7844C75.4939 57.5916 75.4555 57.6236 75.6891 57.4276Z" fill="#990D81"/>
<path d="M40.497 61.3013C39.449 59.0949 38.4034 56.8879 37.3602 54.6805C37.2626 54.4725 37.1514 54.4005 36.9282 54.4149C36.6144 54.4341 36.2996 54.4341 35.9858 54.4149C35.7746 54.4029 35.6658 54.4709 35.5746 54.6701C34.729 56.5181 33.8698 58.3597 33.0146 60.2045C32.6946 60.9005 32.3746 61.5997 32.0586 62.2973H33.789C34.0794 61.7101 34.3722 61.1253 34.6554 60.5373C34.717 60.4101 34.8026 60.3885 34.9266 60.3893C35.6778 60.3893 36.4298 60.3893 37.1818 60.3893C37.4266 60.3893 37.6714 60.3893 37.9162 60.3893C37.959 60.3843 38.0023 60.3935 38.0394 60.4155C38.0766 60.4374 38.1055 60.4709 38.1218 60.5109C38.4034 61.0829 38.6906 61.6517 38.9746 62.2229C38.9816 62.2489 38.984 62.276 38.9818 62.3029H40.9226C40.961 62.2229 40.9034 62.1709 40.8754 62.1109C40.7522 61.8405 40.6242 61.5693 40.497 61.3013ZM35.3442 58.9813L36.417 56.8805C36.7842 57.6109 37.1218 58.2853 37.4738 58.9861L35.3442 58.9813Z" fill="#990D81"/>
<path d="M51.2508 58.2637C51.166 58.2069 51.0612 58.1757 50.9972 58.0917C51.0036 58.0773 51.0052 58.0685 51.0108 58.0637C51.0452 58.0365 51.0796 58.0101 51.1148 57.9837C51.5596 57.6637 51.822 57.2365 51.8588 56.6877C51.9388 55.5525 51.3788 54.7109 50.2836 54.4421C49.9425 54.3651 49.5933 54.3294 49.2436 54.3357C47.6703 54.3357 46.097 54.3357 44.5236 54.3357C44.2932 54.3357 44.29 54.3357 44.29 54.5621C44.29 57.0442 44.29 59.5266 44.29 62.0093C44.29 62.2373 44.29 62.2373 44.5196 62.2397H44.6244C46.0932 62.2397 47.5618 62.2397 49.03 62.2397C49.3446 62.2416 49.659 62.225 49.9716 62.1901C51.23 62.0453 52.1708 61.1901 52.1052 59.7749C52.0996 59.4718 52.0185 59.1749 51.8694 58.9111C51.7202 58.6472 51.5076 58.4247 51.2508 58.2637ZM46.1148 56.1317C46.1148 55.9405 46.1196 55.9341 46.2972 55.9341C47.2316 55.9341 48.1666 55.9354 49.102 55.9381C49.277 55.9358 49.4513 55.9603 49.6188 56.0109C49.9188 56.1069 50.05 56.3061 50.0452 56.6509C50.0404 56.9765 49.9012 57.1709 49.6116 57.2605C49.4001 57.3163 49.1815 57.3405 48.9628 57.3325C48.5692 57.3365 48.1764 57.3325 47.7828 57.3325C47.294 57.3325 46.8044 57.3325 46.3148 57.3325C46.1188 57.3325 46.1164 57.3277 46.1148 57.1261C46.1127 56.7954 46.1127 56.4639 46.1148 56.1317ZM49.8308 60.4909C49.5212 60.6341 49.186 60.6397 48.8548 60.6509C48.4964 60.6605 48.1348 60.6509 47.7796 60.6509C47.2996 60.6509 46.8196 60.6509 46.3396 60.6509C46.1196 60.6509 46.1164 60.6509 46.1156 60.4413C46.1156 59.9949 46.1156 59.5493 46.1156 59.1037C46.1156 58.9789 46.1564 58.9373 46.2812 58.9381C47.2412 58.9437 48.2012 58.9381 49.1612 58.9493C49.3717 58.9512 49.5801 58.9899 49.7772 59.0637C50.0908 59.1813 50.2412 59.4173 50.2572 59.7469C50.2732 60.0765 50.1476 60.3453 49.8308 60.4909Z" fill="#990D81"/>
<path d="M69.9829 54.3332C69.5717 54.3404 69.1613 54.3332 68.7501 54.3332C68.4493 54.3332 68.4709 54.3084 68.4709 54.6196C68.4709 56.0174 68.4709 57.4156 68.4709 58.814C68.4709 58.9012 68.5005 58.9988 68.4149 59.102C68.3405 59.0172 68.2797 58.942 68.2125 58.874C66.7858 57.4201 65.36 55.9662 63.9349 54.5124C63.8821 54.4504 63.8156 54.4015 63.7406 54.3697C63.6656 54.3379 63.5842 54.324 63.5029 54.3292C63.1621 54.342 62.8213 54.3292 62.4805 54.3332C62.1605 54.3332 62.1773 54.2988 62.1773 54.6228V61.9372C62.1773 61.99 62.1773 62.042 62.1773 62.0972C62.1717 62.1932 62.2085 62.2412 62.3117 62.2404C62.7837 62.2404 63.2557 62.2404 63.7277 62.2404C63.8253 62.2404 63.8757 62.2076 63.8725 62.106C63.8725 62.0356 63.8725 61.966 63.8725 61.8956C63.8725 60.4892 63.8725 59.0822 63.8725 57.6748C63.8604 57.5802 63.8672 57.4843 63.8925 57.3924C63.9821 57.4012 64.0157 57.4724 64.0621 57.5164C64.3765 57.8316 64.6885 58.15 65.0021 58.4668C66.1925 59.6732 67.3829 60.8804 68.5733 62.0884C68.6183 62.1402 68.6746 62.181 68.7378 62.2076C68.8011 62.2343 68.8696 62.246 68.9381 62.242C69.2581 62.2316 69.5853 62.242 69.9085 62.242C70.1637 62.242 70.1637 62.242 70.1661 61.9844V54.6676C70.1661 54.6148 70.1621 54.562 70.1661 54.5076C70.1789 54.3732 70.1181 54.3308 69.9829 54.3332Z" fill="#990D81"/>
<path d="M59.7528 58.8404C59.0712 57.4052 58.3907 55.97 57.7112 54.5348C57.6432 54.39 57.5648 54.3252 57.3984 54.3316C57.0408 54.3444 56.6784 54.346 56.3248 54.3316C56.1496 54.3244 56.064 54.382 55.9904 54.542C54.8437 57.0306 53.6936 59.5175 52.54 62.0028C52.5088 62.0708 52.4488 62.134 52.4848 62.2428C53.0016 62.2428 53.5248 62.2428 54.0456 62.2428C54.1744 62.2428 54.2056 62.1556 54.2448 62.0716C54.5064 61.5484 54.7736 61.0316 55.0264 60.5004C55.0499 60.4366 55.0943 60.3827 55.1524 60.3474C55.2106 60.3121 55.2789 60.2975 55.3464 60.306C56.2984 60.3132 57.2504 60.3148 58.2024 60.306C58.3848 60.306 58.4808 60.3572 58.56 60.5268C58.8048 61.0476 59.0712 61.5588 59.3296 62.0732C59.372 62.1588 59.4008 62.2444 59.5288 62.2436C60.1224 62.238 60.716 62.2436 61.3296 62.2436C61.3235 62.1537 61.2961 62.0665 61.2496 61.9892C60.7498 60.938 60.2509 59.8884 59.7528 58.8404ZM55.7824 58.9204C55.8024 58.7444 56.5824 57.182 56.8224 56.8404L57.868 58.9204H55.7824Z" fill="#990D81"/>
</svg>
